<svg width="64" height="64" viewBox="0 0 64 64" fill="none" xmlns="http://www.w3.org/2000/svg">
    <rect width="64" height="64" rx="16" fill="#007bff"/>
    
    <g transform="translate(2, 2) scale(2.4)">
        <path d="M4 4 L20 7" stroke="white" stroke-width="1" stroke-linecap="round"/>
        <path d="M4 4 L11 11" stroke="white" stroke-width="1" stroke-linecap="round"/>
        <path d="M4 4 L6 16" stroke="white" stroke-width="1" stroke-linecap="round"/>
        <path d="M20 7 L11 11" stroke="white" stroke-width="1" stroke-linecap="round"/>
        <path d="M20 7 L19 17" stroke="white" stroke-width="1" stroke-linecap="round"/>
        <path d="M11 11 L6 16" stroke="white" stroke-width="1" stroke-linecap="round"/>
        <path d="M11 11 L19 17" stroke="white" stroke-width="1" stroke-linecap="round"/>
        <path d="M11 11 L12 21" stroke="white" stroke-width="1" stroke-linecap="round"/>
        <path d="M6 16 L12 21" stroke="white" stroke-width="1" stroke-linecap="round"/>
        <path d="M19 17 L12 21" stroke="white" stroke-width="1" stroke-linecap="round"/>

        <circle cx="4" cy="4" r="2" fill="white"/>
        <circle cx="20" cy="7" r="2" stroke="white" stroke-width="1"/>
        <circle cx="11" cy="11" r="2" stroke="white" stroke-width="1"/>
        <circle cx="6" cy="16" r="2" fill="white"/>
        <circle cx="19" cy="17" r="2" fill="white"/>
        <circle cx="12" cy="21" r="2" stroke="white" stroke-width="1"/>
    </g>
</svg>